<svg width="56" height="47" viewBox="0 0 56 47" fill="none" xmlns="http://www.w3.org/2000/svg">
<path d="M49.4979 27.3116L49.4979 27.3117C49.4305 27.5938 49.1339 27.875 48.6987 27.875H20.414H18.5572L18.9475 29.6903L19.579 32.6278L19.8337 33.8125H21.0455H46.9444C47.5587 33.8125 47.8255 34.3124 47.7435 34.6554L47.2112 36.8839L46.9257 38.079L48.0413 38.5941C49.3631 39.2046 50.2171 40.4615 50.2171 41.8594C50.2171 43.8005 48.5409 45.5 46.3139 45.5C44.0868 45.5 42.4106 43.8005 42.4106 41.8594C42.4106 40.8665 42.8372 39.9552 43.5565 39.2848L46.3432 36.6875H42.5338H22.3055H18.4959L21.2829 39.2848C22.0022 39.9552 22.4288 40.8665 22.4288 41.8594C22.4288 43.8005 20.7526 45.5 18.5255 45.5C16.2985 45.5 14.6223 43.8005 14.6223 41.8594C14.6223 40.5488 15.3717 39.3654 16.5565 38.7172L17.5382 38.18L17.303 37.086L10.525 5.55971L10.2703 4.375H9.05851H2.31569C1.79387 4.375 1.5 3.99066 1.5 3.67188V2.20313C1.5 1.88434 1.79387 1.5 2.31569 1.5H12.2084C12.6518 1.5 12.9491 1.79064 13.0106 2.0768L13.0106 2.07688L13.895 6.1903L14.1498 7.375H15.3615H53.26C53.8743 7.375 54.141 7.87492 54.0591 8.21787L49.4979 27.3116Z" fill="#403E5A" stroke="white" stroke-width="3"/>
</svg>
