<svg width="26" height="26" viewBox="0 0 26 26" fill="none" xmlns="http://www.w3.org/2000/svg">
<circle cx="13" cy="13" r="12.5" fill="#2F2E42" stroke="white"/>
<path d="M11.8484 11.07C11.5778 10.5007 11.1858 10.062 10.6724 9.754C10.1591 9.43667 9.56177 9.278 8.88044 9.278C8.1991 9.278 7.5831 9.43667 7.03244 9.754C6.4911 10.062 6.06177 10.51 5.74444 11.098C5.43644 11.6767 5.28244 12.3487 5.28244 13.114C5.28244 13.8793 5.43644 14.5513 5.74444 15.13C6.06177 15.7087 6.4911 16.1567 7.03244 16.474C7.5831 16.782 8.1991 16.936 8.88044 16.936C9.83244 16.936 10.6164 16.6513 11.2324 16.082C11.8484 15.5127 12.2078 14.7427 12.3104 13.772H8.41844V12.736H13.6684V13.716C13.5938 14.5187 13.3418 15.256 12.9124 15.928C12.4831 16.5907 11.9184 17.118 11.2184 17.51C10.5184 17.8927 9.7391 18.084 8.88044 18.084C7.9751 18.084 7.1491 17.874 6.40244 17.454C5.65577 17.0247 5.0631 16.432 4.62444 15.676C4.1951 14.92 3.98044 14.066 3.98044 13.114C3.98044 12.162 4.1951 11.308 4.62444 10.552C5.0631 9.78667 5.65577 9.194 6.40244 8.774C7.1491 8.34467 7.9751 8.13 8.88044 8.13C9.91644 8.13 10.8311 8.38667 11.6244 8.9C12.4271 9.41333 13.0104 10.1367 13.3744 11.07H11.8484ZM22.4229 13.422H19.4409V16.446H18.2509V13.422H15.2829V12.344H18.2509V9.306H19.4409V12.344H22.4229V13.422Z" fill="white"/>
</svg>
