<svg width="26" height="26" viewBox="0 0 26 26" fill="none" xmlns="http://www.w3.org/2000/svg">
<circle cx="13" cy="13" r="12.5" fill="#2F2E42" stroke="white"/>
<path d="M7.8258 9.082C7.58314 9.082 7.3778 8.998 7.2098 8.83C7.0418 8.662 6.9578 8.45667 6.9578 8.214C6.9578 7.97133 7.0418 7.766 7.2098 7.598C7.3778 7.43 7.58314 7.346 7.8258 7.346C8.05914 7.346 8.25514 7.43 8.4138 7.598C8.5818 7.766 8.6658 7.97133 8.6658 8.214C8.6658 8.45667 8.5818 8.662 8.4138 8.83C8.25514 8.998 8.05914 9.082 7.8258 9.082ZM8.4418 10.328V18H7.1678V10.328H8.4418ZM14.7711 10.188C15.7045 10.188 16.4605 10.4727 17.0391 11.042C17.6178 11.602 17.9071 12.414 17.9071 13.478V18H16.6471V13.66C16.6471 12.8947 16.4558 12.3113 16.0731 11.91C15.6905 11.4993 15.1678 11.294 14.5051 11.294C13.8331 11.294 13.2965 11.504 12.8951 11.924C12.5031 12.344 12.3071 12.9553 12.3071 13.758V18H11.0331V10.328H12.3071V11.42C12.5591 11.028 12.8998 10.7247 13.3291 10.51C13.7678 10.2953 14.2485 10.188 14.7711 10.188Z" fill="white"/>
</svg>
