<svg width="36" height="35" viewBox="0 0 36 35" fill="none" xmlns="http://www.w3.org/2000/svg">
<circle cx="17.5215" cy="17.5" r="17" fill="#2F2E42" stroke="white"/>
<path d="M12.9719 12.1347C12.6945 12.1347 12.4599 12.0387 12.2679 11.8467C12.0759 11.6547 11.9799 11.42 11.9799 11.1427C11.9799 10.8653 12.0759 10.6307 12.2679 10.4387C12.4599 10.2467 12.6945 10.1507 12.9719 10.1507C13.2385 10.1507 13.4625 10.2467 13.6439 10.4387C13.8359 10.6307 13.9319 10.8653 13.9319 11.1427C13.9319 11.42 13.8359 11.6547 13.6439 11.8467C13.4625 12.0387 13.2385 12.1347 12.9719 12.1347ZM13.6759 13.5587V22.3267H12.2199V13.5587H13.6759ZM20.9094 13.3987C21.976 13.3987 22.84 13.724 23.5014 14.3747C24.1627 15.0147 24.4934 15.9427 24.4934 17.1587V22.3267H23.0534V17.3667C23.0534 16.492 22.8347 15.8253 22.3974 15.3667C21.96 14.8973 21.3627 14.6627 20.6054 14.6627C19.8374 14.6627 19.224 14.9027 18.7654 15.3827C18.3174 15.8627 18.0934 16.5613 18.0934 17.4787V22.3267H16.6374V13.5587H18.0934V14.8067C18.3814 14.3587 18.7707 14.012 19.2614 13.7667C19.7627 13.5213 20.312 13.3987 20.9094 13.3987Z" fill="white"/>
</svg>
