<svg width="36" height="36" viewBox="0 0 36 36" fill="none" xmlns="http://www.w3.org/2000/svg">
<circle cx="17.9912" cy="17.5423" r="16.9082" fill="#2F2E42" stroke="white" stroke-width="1.18363"/>
<path d="M16.8761 15.5491C16.5558 14.8752 16.0918 14.356 15.4842 13.9914C14.8766 13.6158 14.1696 13.428 13.3631 13.428C12.5567 13.428 11.8276 13.6158 11.1758 13.9914C10.535 14.356 10.0269 14.8862 9.65127 15.5822C9.28671 16.2671 9.10444 17.0625 9.10444 17.9684C9.10444 18.8743 9.28671 19.6697 9.65127 20.3546C10.0269 21.0395 10.535 21.5698 11.1758 21.9454C11.8276 22.3099 12.5567 22.4922 13.3631 22.4922C14.4899 22.4922 15.4179 22.1553 16.147 21.4814C16.8761 20.8075 17.3014 19.8961 17.423 18.7472H12.8163V17.521H19.0303V18.6809C18.9419 19.631 18.6437 20.5037 18.1355 21.2991C17.6273 22.0835 16.959 22.7076 16.1304 23.1716C15.3019 23.6246 14.3795 23.851 13.3631 23.851C12.2915 23.851 11.3139 23.6025 10.4301 23.1053C9.54632 22.5972 8.84483 21.8957 8.32561 21.0009C7.81744 20.106 7.56335 19.0952 7.56335 17.9684C7.56335 16.8416 7.81744 15.8308 8.32561 14.936C8.84483 14.0301 9.54632 13.3286 10.4301 12.8315C11.3139 12.3233 12.2915 12.0692 13.3631 12.0692C14.5894 12.0692 15.672 12.373 16.611 12.9806C17.5611 13.5882 18.2515 14.4444 18.6823 15.5491H16.8761ZM29.3924 18.333H25.8628V21.9122H24.4543V18.333H20.9413V17.057H24.4543V13.4612H25.8628V17.057H29.3924V18.333Z" fill="white"/>
</svg>
