<svg width="218" height="80" viewBox="0 0 218 80" fill="none" xmlns="http://www.w3.org/2000/svg">
<rect x="1.5" y="1.5" width="214.254" height="77" rx="3.5" fill="url(#paint0_linear_1501_2507)"/>
<rect x="1.5" y="1.5" width="214.254" height="77" rx="3.5" stroke="url(#paint1_linear_1501_2507)" stroke-width="3"/>
<path d="M31.94 51.224C30.3827 51.224 28.9747 50.9573 27.716 50.424C26.4787 49.8907 25.4973 49.1227 24.772 48.12C24.0467 47.1173 23.6733 45.9333 23.652 44.568H28.452C28.516 45.4853 28.836 46.2107 29.412 46.744C30.0093 47.2773 30.82 47.544 31.844 47.544C32.8893 47.544 33.7107 47.2987 34.308 46.808C34.9053 46.296 35.204 45.6347 35.204 44.824C35.204 44.1627 35.0013 43.6187 34.596 43.192C34.1907 42.7653 33.6787 42.4347 33.06 42.2C32.4627 41.944 31.6307 41.6667 30.564 41.368C29.1133 40.9413 27.9293 40.5253 27.012 40.12C26.116 39.6933 25.3373 39.064 24.676 38.232C24.036 37.3787 23.716 36.248 23.716 34.84C23.716 33.5173 24.0467 32.3653 24.708 31.384C25.3693 30.4027 26.2973 29.656 27.492 29.144C28.6867 28.6107 30.052 28.344 31.588 28.344C33.892 28.344 35.7587 28.9093 37.188 30.04C38.6387 31.1493 39.4387 32.7067 39.588 34.712H34.66C34.6173 33.944 34.2867 33.3147 33.668 32.824C33.0707 32.312 32.2707 32.056 31.268 32.056C30.3933 32.056 29.6893 32.28 29.156 32.728C28.644 33.176 28.388 33.8267 28.388 34.68C28.388 35.2773 28.58 35.7787 28.964 36.184C29.3693 36.568 29.86 36.888 30.436 37.144C31.0333 37.3787 31.8653 37.656 32.932 37.976C34.3827 38.4027 35.5667 38.8293 36.484 39.256C37.4013 39.6827 38.1907 40.3227 38.852 41.176C39.5133 42.0293 39.844 43.1493 39.844 44.536C39.844 45.7307 39.5347 46.84 38.916 47.864C38.2973 48.888 37.3907 49.7093 36.196 50.328C35.0013 50.9253 33.5827 51.224 31.94 51.224ZM57.808 54.936L54.416 50.872C53.4773 51.1067 52.5173 51.224 51.536 51.224C49.4453 51.224 47.5253 50.7333 45.776 49.752C44.0267 48.7707 42.64 47.416 41.616 45.688C40.592 43.9387 40.08 41.9653 40.08 39.768C40.08 37.592 40.592 35.64 41.616 33.912C42.64 32.1627 44.0267 30.7973 45.776 29.816C47.5253 28.8347 49.4453 28.344 51.536 28.344C53.648 28.344 55.568 28.8347 57.296 29.816C59.0453 30.7973 60.4213 32.1627 61.424 33.912C62.448 35.64 62.96 37.592 62.96 39.768C62.96 41.752 62.5333 43.5653 61.68 45.208C60.848 46.8293 59.7067 48.152 58.256 49.176L63.376 54.936H57.808ZM44.688 39.768C44.688 41.2613 44.976 42.5733 45.552 43.704C46.128 44.8347 46.928 45.7093 47.952 46.328C48.9973 46.9253 50.192 47.224 51.536 47.224C52.88 47.224 54.064 46.9253 55.088 46.328C56.112 45.7093 56.912 44.8347 57.488 43.704C58.064 42.5733 58.352 41.2613 58.352 39.768C58.352 38.2747 58.064 36.9733 57.488 35.864C56.912 34.7333 56.112 33.8693 55.088 33.272C54.064 32.6747 52.88 32.376 51.536 32.376C50.192 32.376 48.9973 32.6747 47.952 33.272C46.928 33.8693 46.128 34.7333 45.552 35.864C44.976 36.9733 44.688 38.2747 44.688 39.768ZM68.2115 28.664V42.488C68.2115 44.0027 68.6062 45.1653 69.3955 45.976C70.1848 46.7653 71.2942 47.16 72.7235 47.16C74.1742 47.16 75.2942 46.7653 76.0835 45.976C76.8728 45.1653 77.2675 44.0027 77.2675 42.488V28.664H81.7795V42.456C81.7795 44.3547 81.3635 45.9653 80.5315 47.288C79.7208 48.5893 78.6222 49.5707 77.2355 50.232C75.8702 50.8933 74.3448 51.224 72.6595 51.224C70.9955 51.224 69.4808 50.8933 68.1155 50.232C66.7715 49.5707 65.7048 48.5893 64.9155 47.288C64.1262 45.9653 63.7315 44.3547 63.7315 42.456V28.664H68.2115ZM97.244 46.744H88.348L86.876 51H82.172L90.204 28.632H95.42L103.452 51H98.716L97.244 46.744ZM96.028 43.16L92.796 33.816L89.564 43.16H96.028ZM115.414 51L110.486 42.296H108.374V51H103.894V28.664H112.278C114.006 28.664 115.478 28.9733 116.694 29.592C117.91 30.1893 118.817 31.0107 119.414 32.056C120.033 33.08 120.342 34.232 120.342 35.512C120.342 36.984 119.916 38.3173 119.062 39.512C118.209 40.6853 116.94 41.496 115.254 41.944L120.598 51H115.414ZM108.374 38.936H112.118C113.334 38.936 114.241 38.648 114.838 38.072C115.436 37.4747 115.734 36.6533 115.734 35.608C115.734 34.584 115.436 33.7947 114.838 33.24C114.241 32.664 113.334 32.376 112.118 32.376H108.374V38.936ZM126.314 32.28V37.88H133.834V41.432H126.314V47.352H134.794V51H121.834V28.632H134.794V32.28H126.314ZM138.897 30.456V38.808H147.377V40.664H138.897V49.144H148.337V51H136.657V28.6H148.337V30.456H138.897ZM164.975 28.632L157.807 42.296V51H155.567V42.296L148.335 28.632H150.863L156.687 40.248L162.479 28.632H164.975ZM167.934 30.456V38.808H176.414V40.664H167.934V49.144H177.374V51H165.694V28.6H177.374V30.456H167.934ZM186.012 51.224C184.54 51.224 183.238 50.968 182.108 50.456C180.998 49.944 180.124 49.2293 179.484 48.312C178.844 47.3947 178.502 46.3707 178.46 45.24H180.828C180.934 46.328 181.414 47.288 182.268 48.12C183.121 48.9307 184.369 49.336 186.012 49.336C187.526 49.336 188.721 48.952 189.596 48.184C190.492 47.3947 190.94 46.4027 190.94 45.208C190.94 44.248 190.694 43.48 190.204 42.904C189.713 42.3067 189.105 41.8693 188.38 41.592C187.654 41.2933 186.652 40.9733 185.372 40.632C183.878 40.2267 182.694 39.832 181.82 39.448C180.945 39.064 180.198 38.4667 179.58 37.656C178.961 36.8453 178.652 35.7467 178.652 34.36C178.652 33.208 178.95 32.184 179.548 31.288C180.145 30.3707 180.988 29.656 182.076 29.144C183.164 28.632 184.412 28.376 185.82 28.376C187.889 28.376 189.553 28.888 190.812 29.912C192.092 30.9147 192.828 32.216 193.02 33.816H190.588C190.438 32.8987 189.937 32.088 189.084 31.384C188.23 30.6587 187.078 30.296 185.628 30.296C184.284 30.296 183.164 30.6587 182.268 31.384C181.372 32.088 180.924 33.0587 180.924 34.296C180.924 35.2347 181.169 35.992 181.66 36.568C182.15 37.144 182.758 37.5813 183.484 37.88C184.23 38.1787 185.233 38.4987 186.492 38.84C187.942 39.2453 189.116 39.6507 190.012 40.056C190.908 40.44 191.665 41.0373 192.284 41.848C192.902 42.6587 193.212 43.7467 193.212 45.112C193.212 46.1573 192.934 47.1493 192.38 48.088C191.825 49.0267 191.004 49.784 189.916 50.36C188.828 50.936 187.526 51.224 186.012 51.224Z" fill="url(#paint2_radial_1501_2507)"/>
<defs>
<linearGradient id="paint0_linear_1501_2507" x1="111.701" y1="3" x2="110.999" y2="80.0216" gradientUnits="userSpaceOnUse">
<stop stop-color="#FEFEFE"/>
<stop offset="0.024419" stop-color="white" stop-opacity="0.78"/>
<stop offset="0.9999" stop-color="#F2E7E7" stop-opacity="0.879168"/>
<stop offset="1" stop-color="#15E3D7" stop-opacity="0.28"/>
</linearGradient>
<linearGradient id="paint1_linear_1501_2507" x1="108.627" y1="0" x2="108.627" y2="80" gradientUnits="userSpaceOnUse">
<stop stop-color="#BD5D5D"/>
<stop offset="1" stop-color="#16A2DE"/>
</linearGradient>
<radialGradient id="paint2_radial_1501_2507" cx="0" cy="0" r="1" gradientUnits="userSpaceOnUse" gradientTransform="translate(108.5 39.5) rotate(90) scale(30.5 86.5)">
<stop offset="0.307292" stop-color="#191B1E"/>
<stop offset="0.979167" stop-color="#C14343"/>
</radialGradient>
</defs>
</svg>
