<svg width="24" height="20" viewBox="0 0 24 20" fill="none" xmlns="http://www.w3.org/2000/svg">
<rect x="0.5" y="0.5" width="23" height="19" rx="2.5" fill="#007FF3"/>
<path d="M19.8375 11.2141L19.8374 11.2142C19.8113 11.3259 19.7029 11.4209 19.56 11.4209H9.9866H9.37042L9.49731 12.0239L9.71106 13.0395L9.79461 13.4365H10.2003H18.9662C19.1655 13.4365 19.2776 13.608 19.2437 13.7532L19.0635 14.5237L18.9715 14.9173L19.337 15.0897C19.7846 15.3009 20.0817 15.7402 20.0817 16.2373C20.0817 16.9294 19.5003 17.5146 18.7528 17.5146C18.0054 17.5146 17.424 16.9294 17.424 16.2373C17.424 15.8848 17.5724 15.5639 17.8182 15.3299L18.7237 14.4678H17.4734H10.6268H9.37645L10.2821 15.3299C10.5278 15.5639 10.6762 15.8848 10.6762 16.2373C10.6762 16.9294 10.0949 17.5146 9.34742 17.5146C8.59997 17.5146 8.01859 16.9294 8.01859 16.2373C8.01859 15.7714 8.27934 15.357 8.68122 15.1324L9.00233 14.9529L8.92656 14.593L6.63243 3.69292L6.54887 3.2959H6.14315H3.86093C3.69064 3.2959 3.57715 3.16537 3.57715 3.03418V2.52637C3.57715 2.39518 3.69064 2.26465 3.86093 2.26465H7.20929C7.35479 2.26465 7.46394 2.36287 7.48788 2.47666L7.48789 2.47669L7.78723 3.89888L7.87079 4.2959H8.27651H21.1039C21.3031 4.2959 21.4152 4.46733 21.3813 4.61258L19.8375 11.2141Z" fill="#007FF3" stroke="white"/>
<path d="M12.1479 7.88989H18.9306" stroke="white"/>
<rect x="0.5" y="0.5" width="23" height="19" rx="2.5" stroke="white"/>
</svg>
