<svg width="58" height="64" viewBox="0 0 58 64" fill="none" xmlns="http://www.w3.org/2000/svg">
<g filter="url(#filter0_d_1511_2443)">
<path d="M42.3928 15.7434C42.3928 24.0256 36.6053 30.4867 29.7565 30.4867C22.9077 30.4867 17.1201 24.0256 17.1201 15.7434C17.1201 7.46112 22.9077 1 29.7565 1C36.6053 1 42.3928 7.46112 42.3928 15.7434Z" fill="#2F2E42" stroke="white" stroke-width="2"/>
<path d="M52.5 43.2942C52.5 45.6354 50.4355 48.2097 46.0371 50.2871C41.7545 52.3098 35.7326 53.6018 29 53.6018C22.2674 53.6018 16.2455 52.3098 11.9629 50.2871C7.56446 48.2097 5.5 45.6354 5.5 43.2942C5.5 40.9531 7.56446 38.3788 11.9629 36.3014C16.2455 34.2787 22.2674 32.9867 29 32.9867C35.7326 32.9867 41.7545 34.2787 46.0371 36.3014C50.4355 38.3788 52.5 40.9531 52.5 43.2942Z" fill="#2F2E42" stroke="url(#paint0_linear_1511_2443)" stroke-width="3"/>
</g>
<defs>
<filter id="filter0_d_1511_2443" x="0" y="0" width="58" height="63.1018" filterUnits="userSpaceOnUse" color-interpolation-filters="sRGB">
<feFlood flood-opacity="0" result="BackgroundImageFix"/>
<feColorMatrix in="SourceAlpha" type="matrix" values="0 0 0 0 0 0 0 0 0 0 0 0 0 0 0 0 0 0 127 0" result="hardAlpha"/>
<feOffset dy="4"/>
<feGaussianBlur stdDeviation="2"/>
<feComposite in2="hardAlpha" operator="out"/>
<feColorMatrix type="matrix" values="0 0 0 0 0 0 0 0 0 0 0 0 0 0 0 0 0 0 0.25 0"/>
<feBlend mode="normal" in2="BackgroundImageFix" result="effect1_dropShadow_1511_2443"/>
<feBlend mode="normal" in="SourceGraphic" in2="effect1_dropShadow_1511_2443" result="shape"/>
</filter>
<linearGradient id="paint0_linear_1511_2443" x1="29" y1="11.0919" x2="29" y2="60.4688" gradientUnits="userSpaceOnUse">
<stop stop-color="white"/>
<stop offset="0.578125" stop-color="#F2F2F2"/>
<stop offset="0.703125" stop-color="#2F2E42"/>
</linearGradient>
</defs>
</svg>
